<svg xmlns="http://www.w3.org/2000/svg" viewBox="0 0 462.399 136.82"><style type="text/css"><![CDATA[
	.st0{fill:url(#SVGID_1_);}
	.st1{fill:url(#SVGID_2_);}
	.st2{fill:#FFFFFF;}
]]></style><path class="st2" d="M64.445 43.269l-12.746-24.58 32.66-16.93 12.746 24.575z"/><linearGradient id="SVGID_1_" gradientUnits="userSpaceOnUse" x1="10.953" y1="55.594" x2="57.593" y2="31.491"><stop offset="0" stop-color="#fff" stop-opacity="0"/><stop offset="1" stop-color="#fff" stop-opacity=".6"/></linearGradient><path class="st0" d="M14.48 69.618l-12.746-24.582 49.965-26.347 12.746 24.58z"/><linearGradient id="SVGID_2_" gradientUnits="userSpaceOnUse" x1="31.245" y1="91.403" x2="58.178" y2="77.43"><stop offset="0" stop-color="#fff" stop-opacity="0"/><stop offset="1" stop-color="#fff" stop-opacity=".6"/></linearGradient><path class="st1" d="M37.158 104.164l-12.745-24.58 27.286-14.621 12.746 24.576z"/><path class="st2" d="M64.445 89.539l-12.746-24.576 32.66-16.934 12.746 24.579zM84.355 94.187l12.745 24.582-32.661 16.934-12.745-24.582zM133.197 28.231v17.787h19.11v5.292h-19.11v24.696h-6.248v-53.214h27.049v5.439h-20.801zM165.089 28.378c-2.132 0-3.896-1.691-3.896-3.749s1.764-3.822 3.896-3.822c2.132 0 3.896 1.764 3.896 3.822s-1.763 3.749-3.896 3.749zm-3.012 47.628v-39.617h6.1v39.617h-6.1zM178.65 76.006v-57.697h6.1v57.698h-6.1zM226.443 55.206l-27.048 3.896c.662 8.453 5.734 12.716 13.304 12.716 3.97 0 8.16-.956 10.804-2.425l1.912 4.63c-2.866 1.617-7.792 2.793-13.01 2.793-11.834 0-18.963-7.644-18.963-20.654 0-12.201 6.541-20.581 17.272-20.581 9.776 0 15.802 6.395 15.802 16.979.001.808.001 1.69-.073 2.646zm-15.802-14.921c-6.982 0-11.466 5.586-11.613 14.553l21.609-3.087c-.074-7.791-4.042-11.466-9.996-11.466zM244.519 28.231v47.775h-6.32v-47.775h-13.23v-5.439h32.78v5.439h-13.23zM289.099 76.006v-26.681c0-5.806-3.822-8.599-9.849-8.599-2.866 0-6.027.882-8.231 2.205v33.075h-6.175v-57.697h6.175v19.771c2.572-1.323 6.1-2.352 9.408-2.352 9.113 0 14.773 4.631 14.773 13.157v27.121h-6.101zM308.429 28.378c-2.132 0-3.896-1.691-3.896-3.749s1.764-3.822 3.896-3.822 3.896 1.764 3.896 3.822-1.764 3.749-3.896 3.749zm-3.012 47.628v-39.617h6.1v39.617h-6.1zM330.626 76.815c-4.264 0-8.895-1.249-11.761-2.793l2.204-4.705c2.133 1.25 6.32 2.5 9.482 2.5 5.07 0 8.452-2.5 8.452-6.395 0-4.189-3.382-5.807-8.012-7.497-5.586-2.058-11.099-4.557-11.099-11.687 0-6.174 4.778-10.658 13.156-10.658 4.484 0 8.38 1.176 11.026 2.793l-2.132 4.337c-1.838-1.176-5.219-2.352-8.307-2.352-4.776 0-7.496 2.572-7.496 5.88 0 4.189 3.234 5.659 7.645 7.276 5.88 2.205 11.612 4.484 11.612 11.907.002 6.836-5.436 11.394-14.77 11.394zM123.778 114.535l2.283-.394 2.774-21.087-2.069-.3.154-1.279h3.569l4.489-.268c4.336 0 6.864 1.973 6.926 6.155.107 6.202-4.353 9.675-9.469 9.675-1.379 0-2.436-.094-2.988-.142l-.919 7.245 3.002.378-.092 1.104h-7.767l.107-1.087zm8.779-9.012c4.583-.048 6.788-2.842 6.849-7.94.046-3.155-1.256-4.859-4.811-4.859-1.271 0-2.62.188-3.278.331l-1.686 12.199c.935.157 2.022.269 2.926.269zM141.635 109.327c0-4.878 3.615-12.059 9.806-12.059.98 0 2.099.268 2.957.568l.015-.017 1.809-.536-2.298 15.61c-.153 1.089.291 1.388.582 1.388.399 0 .782-.377 1.379-.931l.414.694c-.169.363-1.457 1.894-3.05 1.894-1.165 0-1.884-.583-1.777-2.161l.154-1.153c-1.073 1.579-2.973 3.314-5.256 3.314-3.25.001-4.735-2.666-4.735-6.611zm10.31.994l1.578-10.78c-.673-.521-1.578-.711-2.467-.711-4.473 0-6.91 5.872-6.91 10.149 0 3.393.935 5.162 2.713 5.162 2.313 0 4.228-2.369 5.086-3.82zM160.251 123.832h-2.314l3.157-24.26-1.656-.631.215-1.01 3.508-.663.598.314-.322 2.415c1.027-1.356 2.758-2.729 4.888-2.729 3.538 0 5.208 2.889 5.208 6.834 0 4.924-3.493 11.837-9.699 11.837-.796 0-1.7-.157-2.481-.377l-1.102 8.27zm3.952-9.44c4.505 0 6.818-5.839 6.818-10.116 0-3.393-1.225-5.193-3.08-5.193-2.053 0-3.906 1.753-4.794 3.126l-1.533 11.458c.704.537 1.654.725 2.589.725zM184.443 97.268c2.911 0 4.32 1.719 4.32 3.945 0 4.956-7.522 6.96-10.571 7.039-.215 2.416.537 5.92 3.708 5.92 1.656 0 3.464-.742 5.225-2.558l.583 1.074c-.874 1.247-3.125 3.25-6.099 3.25-4.412 0-6.067-3.646-5.975-7.212.153-5.98 3.783-11.458 8.809-11.458zm1.808 4.167c0-1.784-.92-2.685-2.375-2.685-3.387 0-5.302 4.721-5.624 8.083 3.31-.111 7.999-2.052 7.999-5.398zM193.199 99.808l-1.486-.74.215-1.137 3.249-.663.596.314-.443 4.01c.797-1.705 3.019-4.309 5.807-4.309.307 0 .796.031.98.206l-.521 2.619c-.305-.157-.765-.222-1.486-.222-1.7 0-3.876 1.358-5.07 4.15l-1.501 11.586h-2.375l2.035-15.814zM202.745 112.94l3.063-21.228-1.823-.521.245-1.057 3.51-.553.613.363-3.31 23.186c-.107.758.107 1.151.383 1.151.428 0 .919-.268 1.7-1.104l.399.679c-.23.441-1.608 2.082-3.325 2.082-1.058 0-1.578-.552-1.547-1.925 0-.221.03-.756.092-1.073zM218.811 97.268c2.91 0 4.319 1.719 4.319 3.945 0 4.956-7.522 6.96-10.571 7.039-.215 2.416.537 5.92 3.707 5.92 1.655 0 3.464-.742 5.225-2.558l.583 1.074c-.874 1.247-3.125 3.25-6.099 3.25-4.412 0-6.067-3.646-5.975-7.212.154-5.98 3.784-11.458 8.811-11.458zm1.808 4.167c0-1.784-.92-2.685-2.375-2.685-3.387 0-5.302 4.721-5.624 8.083 3.309-.111 7.999-2.052 7.999-5.398zM224.521 113.036c.659.489 2.053 1.184 4.121 1.184 1.792 0 3.585-.584 3.585-2.73 0-1.895-1.808-2.952-3.08-3.962-1.104-.884-3.324-2.699-3.324-5.304 0-3.124 2.772-4.955 5.883-4.955 1.639 0 3.232.394 3.738.646l-.506 2.131c-.184-.284-1.426-1.137-3.355-1.137-1.869 0-3.249.838-3.402 2.542-.153 1.895 1.409 3.188 2.729 4.183 1.455 1.136 3.646 2.73 3.646 5.382 0 3.188-2.85 4.924-6.053 4.924-1.854 0-3.891-.489-4.428-.993l.446-1.911zM236.641 113.036c.659.489 2.053 1.184 4.121 1.184 1.792 0 3.585-.584 3.585-2.73 0-1.895-1.809-2.952-3.08-3.962-1.104-.884-3.325-2.699-3.325-5.304 0-3.124 2.773-4.955 5.884-4.955 1.639 0 3.232.394 3.738.646l-.506 2.131c-.184-.284-1.426-1.137-3.356-1.137-1.869 0-3.249.838-3.401 2.542-.153 1.895 1.409 3.188 2.728 4.183 1.455 1.136 3.646 2.73 3.646 5.382 0 3.188-2.85 4.924-6.053 4.924-1.854 0-3.891-.489-4.428-.993l.447-1.911zM337.917 114.535l2.251-.379 2.758-21.102-2.021-.3.152-1.279h13.958l-.106 4.894h-1.317l-.552-3.268-7.614-.253-1.226 9.518 7.14-.095-.154 1.973-7.216-.206-1.349 10.104 9.315-.301 1.73-3.599 1.288.395-1.363 4.987h-15.798l.124-1.089zM358.895 99.209h-2.131l.185-.963 2.252-.773.215-1.562c.506-3.709 3.341-6.645 6.145-6.645.812 0 1.64.063 2.42.41l-.705 2.115c-.397-.269-1.118-.694-2.237-.679-1.777.016-2.925 1.783-3.247 4.577l-.199 1.704h3.846l-.184 1.815h-4.015l-2.16 17.582c-.506 4.167-2.268 6.897-5.21 6.93-1.01.015-2.053-.174-2.481-.301l.644-1.957c.199.095 1.226.553 2.358.537 1.365-.015 2.008-1.878 2.329-4.373l2.175-18.417zM369.17 99.209h-2.131l.185-.963 2.252-.773.215-1.562c.506-3.709 3.341-6.645 6.145-6.645.812 0 1.64.063 2.42.41l-.705 2.115c-.397-.269-1.118-.694-2.237-.679-1.777.016-2.925 1.783-3.247 4.577l-.199 1.704h3.846l-.184 1.815h-4.015l-2.16 17.582c-.506 4.167-2.269 6.897-5.21 6.93-1.01.015-2.053-.174-2.481-.301l.644-1.957c.199.095 1.226.553 2.358.537 1.365-.015 2.008-1.878 2.329-4.373l2.175-18.417zM383.829 97.268c3.876 0 5.854 2.667 5.93 7.26.092 5.699-3.402 11.411-8.55 11.411-3.876 0-5.837-2.65-5.913-7.244-.092-5.73 3.386-11.427 8.533-11.427zm3.387 7.292c-.046-3.553-1.211-5.745-3.83-5.745-3.861 0-5.639 5.555-5.562 9.849.046 3.614 1.257 5.729 3.813 5.729 3.831-.001 5.639-5.539 5.579-9.833zM394.392 99.808l-1.486-.74.215-1.137 3.249-.663.597.314-.443 4.01c.796-1.705 3.019-4.309 5.806-4.309.308 0 .797.031.98.206l-.521 2.619c-.306-.157-.766-.222-1.486-.222-1.7 0-3.876 1.358-5.07 4.15l-1.503 11.586h-2.373l2.035-15.814zM405.26 111.395l1.548-12.233h-1.9l.246-1.104 1.944-.602c.537-.771 1.271-2.855 1.717-4.182h1.165l-.507 4.119h4l-.247 1.768h-3.968l-1.47 11.032c-.139 1.089-.216 1.941-.216 2.462 0 1.137.276 1.517 1.487 1.517.935 0 2.498-.915 3.11-1.39l.214 1.01c-.643.805-2.879 2.146-4.596 2.146-1.671 0-2.697-.788-2.697-2.636.001-.219.001-.582.17-1.907zM414.933 112.94l3.063-21.228-1.823-.521.244-1.057 3.511-.553.612.363-3.31 23.186c-.106.758.106 1.151.383 1.151.429 0 .92-.268 1.7-1.104l.398.679c-.229.441-1.607 2.082-3.324 2.082-1.058 0-1.578-.552-1.547-1.925.001-.221.03-.756.093-1.073zM430.998 97.268c2.91 0 4.319 1.719 4.319 3.945 0 4.956-7.522 6.96-10.57 7.039-.216 2.416.536 5.92 3.707 5.92 1.655 0 3.464-.742 5.225-2.558l.583 1.074c-.874 1.247-3.126 3.25-6.099 3.25-4.412 0-6.067-3.646-5.976-7.212.155-5.98 3.785-11.458 8.811-11.458zm1.808 4.167c0-1.784-.919-2.685-2.375-2.685-3.386 0-5.302 4.721-5.623 8.083 3.309-.111 7.998-2.052 7.998-5.398zM436.709 113.036c.658.489 2.053 1.184 4.121 1.184 1.792 0 3.585-.584 3.585-2.73 0-1.895-1.809-2.952-3.079-3.962-1.104-.884-3.324-2.699-3.324-5.304 0-3.124 2.772-4.955 5.883-4.955 1.64 0 3.232.394 3.738.646l-.506 2.131c-.184-.284-1.426-1.137-3.355-1.137-1.869 0-3.249.838-3.401 2.542-.153 1.895 1.409 3.188 2.728 4.183 1.456 1.136 3.646 2.73 3.646 5.382 0 3.188-2.85 4.924-6.053 4.924-1.854 0-3.891-.489-4.428-.993l.445-1.911zM448.829 113.036c.658.489 2.053 1.184 4.12 1.184 1.792 0 3.586-.584 3.586-2.73 0-1.895-1.809-2.952-3.08-3.962-1.104-.884-3.324-2.699-3.324-5.304 0-3.124 2.772-4.955 5.884-4.955 1.639 0 3.232.394 3.738.646l-.506 2.131c-.184-.284-1.426-1.137-3.355-1.137-1.869 0-3.249.838-3.401 2.542-.153 1.895 1.409 3.188 2.728 4.183 1.455 1.136 3.646 2.73 3.646 5.382 0 3.188-2.85 4.924-6.053 4.924-1.854 0-3.891-.489-4.428-.993l.445-1.911zM255.399 114.514l2.375-.38 5.556-21.19-2.861-.302.151-1.284h6.3l2.116 16.923.32 4.107 1.506-4.044 7.639-16.986h5.8l-.138 1.284-2.724.302-.93 21.174 2.466.396-.105 1.109h-7.762l.121-1.109 2.739-.365 1.096-14.797.472-6.36-2.312 5.598-7.792 17.099-1.521.222-2.268-16.938-.639-5.979-1.341 6.105-3.668 15.037 2.801.38-.106 1.109h-7.411l.12-1.111zM283.932 109.295c0-4.899 3.59-12.116 9.739-12.116.975 0 2.085.27 2.938.571l.015-.017 1.797-.539-2.283 15.687c-.152 1.094.289 1.395.578 1.395.396 0 .775-.38 1.37-.935l.41.698c-.167.364-1.445 1.901-3.028 1.901-1.156 0-1.873-.586-1.766-2.173l.152-1.156c-1.065 1.585-2.953 3.329-5.22 3.329-3.226.001-4.702-2.68-4.702-6.645zm10.242 1l1.567-10.832c-.67-.523-1.567-.714-2.451-.714-4.442 0-6.863 5.899-6.863 10.198 0 3.409.93 5.187 2.693 5.187 2.298 0 4.201-2.38 5.054-3.839zM300.181 109.09c0-4.901 3.531-11.911 9.756-11.911.821 0 1.766.189 2.556.429l.884-6.012-1.947-.524.258-1.062 3.638-.555.669.365-3.256 23.3c-.092.776.091 1.156.35 1.156.411 0 .853-.301 1.46-.873l.411.698c-.258.397-1.521 1.84-3.104 1.84-1.035 0-1.644-.539-1.581-1.935 0-.015 0-.587.015-.887-1.035 1.395-2.847 2.821-5.053 2.821-3.442.001-5.056-2.885-5.056-6.85zm10.38 1.84l1.659-11.356c-.716-.617-1.705-.841-2.649-.841-4.686 0-6.894 6.09-6.894 10.184 0 3.267 1.066 5.218 2.938 5.218 2.16-.001 4.077-1.857 4.946-3.205zM325.607 97.179c2.892 0 4.291 1.729 4.291 3.965 0 4.979-7.472 6.993-10.501 7.074-.213 2.426.532 5.947 3.683 5.947 1.644 0 3.439-.746 5.19-2.569l.578 1.078c-.867 1.253-3.104 3.267-6.058 3.267-4.382 0-6.026-3.663-5.935-7.248.153-6.01 3.759-11.514 8.752-11.514zm1.796 4.187c0-1.792-.913-2.695-2.358-2.695-3.364 0-5.267 4.742-5.587 8.12 3.288-.112 7.945-2.063 7.945-5.425z"/></svg>